<?xml version="1.0" encoding="UTF-8" standalone="no" ?>
<!DOCTYPE svg PUBLIC "-//W3C//DTD SVG 1.1//EN" "http://www.w3.org/Graphics/SVG/1.1/DTD/svg11.dtd">
<svg xmlns="http://www.w3.org/2000/svg" xmlns:xlink="http://www.w3.org/1999/xlink" version="1.1" width="350" height="350" viewBox="0 0 350 350" xml:space="preserve">
<desc>Created with Fabric.js 1.7.22</desc>
<defs>
</defs>
<g id="icon" style="stroke: none; stroke-width: 1; stroke-dasharray: none; stroke-linecap: butt; stroke-linejoin: miter; stroke-miterlimit: 10; fill: none; fill-rule: nonzero; opacity: 1;" transform="translate(-1.9444444444444287 -1.9444444444444287) scale(3.89 3.89)" >
	<path d="M 84.631 24.874 h 3.465 c 1.051 0 1.904 0.852 1.904 1.904 v 56.574 c 0 1.051 -0.852 1.904 -1.904 1.904 H 1.904 C 0.852 85.256 0 84.404 0 83.352 V 26.778 c 0 -1.051 0.852 -1.904 1.904 -1.904 h 3.465" style="stroke: none; stroke-width: 1; stroke-dasharray: none; stroke-linecap: butt; stroke-linejoin: miter; stroke-miterlimit: 10; fill: rgb(182,28,28); fill-rule: nonzero; opacity: 1;" transform=" matrix(1 0 0 1 0 0) " stroke-linecap="round" />
	<path d="M 7.695 80.103 C 20.13 77.439 32.565 77.616 45 80.634 V 22.527 c -12.717 -3.087 -25.433 -3.202 -38.15 -0.346 c -0.867 0.195 -1.481 0.977 -1.481 1.865 v 54.202 C 5.369 79.47 6.5 80.359 7.695 80.103 z" style="stroke: none; stroke-width: 1; stroke-dasharray: none; stroke-linecap: butt; stroke-linejoin: miter; stroke-miterlimit: 10; fill: rgb(234,158,101); fill-rule: nonzero; opacity: 1;" transform=" matrix(1 0 0 1 0 0) " stroke-linecap="round" />
	<path d="M 72.853 20.518 c 3.433 0.338 6.865 0.892 10.298 1.663 c 0.867 0.195 1.48 0.976 1.48 1.864 v 54.203 c 0 1.222 -1.131 2.11 -2.326 1.854 C 69.87 77.439 57.435 77.616 45 80.634 V 22.527" style="stroke: none; stroke-width: 1; stroke-dasharray: none; stroke-linecap: butt; stroke-linejoin: miter; stroke-miterlimit: 10; fill: rgb(201,130,77); fill-rule: nonzero; opacity: 1;" transform=" matrix(1 0 0 1 0 0) " stroke-linecap="round" />
	<path d="M 45 80.634 c 5.647 -9.847 14.197 -15.64 25.408 -17.719 c 1.418 -0.263 2.445 -1.504 2.445 -2.946 V 6.651 c 0 -1.195 -1.091 -2.089 -2.267 -1.875 C 59.288 6.826 50.677 12.628 45 22.527 C 44.364 39.582 44.501 59.45 45 80.634 z" style="stroke: none; stroke-width: 1; stroke-dasharray: none; stroke-linecap: butt; stroke-linejoin: miter; stroke-miterlimit: 10; fill: rgb(234,158,101); fill-rule: nonzero; opacity: 1;" transform=" matrix(1 0 0 1 0 0) " stroke-linecap="round" />
	<path d="M 52.095 27.498 c -0.277 0 -0.553 -0.112 -0.755 -0.333 c -0.381 -0.417 -0.352 -1.064 0.065 -1.445 c 4.004 -3.658 8.848 -6.335 14.398 -7.958 c 0.542 -0.16 1.11 0.153 1.268 0.695 c 0.159 0.542 -0.153 1.11 -0.695 1.269 c -5.247 1.534 -9.821 4.058 -13.591 7.504 C 52.589 27.41 52.342 27.498 52.095 27.498 z" style="stroke: none; stroke-width: 1; stroke-dasharray: none; stroke-linecap: butt; stroke-linejoin: miter; stroke-miterlimit: 10; fill: rgb(96,65,42); fill-rule: nonzero; opacity: 1;" transform=" matrix(1 0 0 1 0 0) " stroke-linecap="round" />
	<path d="M 52.097 38.257 c -0.277 0 -0.553 -0.112 -0.755 -0.333 c -0.381 -0.417 -0.352 -1.064 0.065 -1.445 c 4.003 -3.656 8.847 -6.333 14.396 -7.956 c 0.542 -0.159 1.11 0.153 1.268 0.695 c 0.159 0.542 -0.153 1.11 -0.695 1.269 c -5.246 1.534 -9.819 4.058 -13.589 7.502 C 52.591 38.168 52.344 38.257 52.097 38.257 z" style="stroke: none; stroke-width: 1; stroke-dasharray: none; stroke-linecap: butt; stroke-linejoin: miter; stroke-miterlimit: 10; fill: rgb(96,65,42); fill-rule: nonzero; opacity: 1;" transform=" matrix(1 0 0 1 0 0) " stroke-linecap="round" />
	<path d="M 52.097 49.017 c -0.277 0 -0.553 -0.112 -0.755 -0.333 c -0.381 -0.417 -0.352 -1.065 0.065 -1.445 c 4.004 -3.657 8.848 -6.334 14.396 -7.956 c 0.542 -0.159 1.11 0.153 1.268 0.695 c 0.159 0.542 -0.153 1.11 -0.695 1.269 c -5.245 1.533 -9.818 4.057 -13.589 7.502 C 52.591 48.929 52.344 49.017 52.097 49.017 z" style="stroke: none; stroke-width: 1; stroke-dasharray: none; stroke-linecap: butt; stroke-linejoin: miter; stroke-miterlimit: 10; fill: rgb(96,65,42); fill-rule: nonzero; opacity: 1;" transform=" matrix(1 0 0 1 0 0) " stroke-linecap="round" />
	<path d="M 52.098 59.777 c -0.277 0 -0.553 -0.112 -0.755 -0.333 c -0.381 -0.417 -0.352 -1.065 0.065 -1.445 c 4.002 -3.655 8.845 -6.332 14.395 -7.955 c 0.542 -0.159 1.11 0.153 1.268 0.695 c 0.159 0.541 -0.153 1.11 -0.695 1.268 c -5.246 1.534 -9.819 4.058 -13.588 7.502 C 52.592 59.688 52.345 59.777 52.098 59.777 z" style="stroke: none; stroke-width: 1; stroke-dasharray: none; stroke-linecap: butt; stroke-linejoin: miter; stroke-miterlimit: 10; fill: rgb(96,65,42); fill-rule: nonzero; opacity: 1;" transform=" matrix(1 0 0 1 0 0) " stroke-linecap="round" />
	<path d="M 12.198 35.09 c -0.494 0 -0.928 -0.359 -1.009 -0.862 c -0.088 -0.558 0.292 -1.082 0.849 -1.171 c 8.676 -1.379 17.472 -1.388 26.145 -0.022 c 0.558 0.088 0.939 0.611 0.851 1.169 c -0.088 0.559 -0.612 0.939 -1.169 0.851 c -8.461 -1.332 -17.043 -1.323 -25.506 0.022 C 12.306 35.086 12.252 35.09 12.198 35.09 z" style="stroke: none; stroke-width: 1; stroke-dasharray: none; stroke-linecap: butt; stroke-linejoin: miter; stroke-miterlimit: 10; fill: rgb(96,65,42); fill-rule: nonzero; opacity: 1;" transform=" matrix(1 0 0 1 0 0) " stroke-linecap="round" />
	<path d="M 12.199 45.851 c -0.494 0 -0.929 -0.359 -1.009 -0.862 c -0.088 -0.558 0.292 -1.082 0.849 -1.171 c 8.674 -1.38 17.471 -1.388 26.145 -0.022 c 0.558 0.088 0.939 0.611 0.851 1.169 c -0.088 0.559 -0.612 0.939 -1.169 0.851 c -8.463 -1.33 -17.044 -1.324 -25.506 0.022 C 12.306 45.847 12.252 45.851 12.199 45.851 z" style="stroke: none; stroke-width: 1; stroke-dasharray: none; stroke-linecap: butt; stroke-linejoin: miter; stroke-miterlimit: 10; fill: rgb(96,65,42); fill-rule: nonzero; opacity: 1;" transform=" matrix(1 0 0 1 0 0) " stroke-linecap="round" />
	<path d="M 12.199 56.612 c -0.494 0 -0.929 -0.359 -1.009 -0.862 c -0.088 -0.558 0.292 -1.082 0.849 -1.171 c 8.676 -1.381 17.473 -1.388 26.145 -0.024 c 0.558 0.088 0.939 0.611 0.851 1.17 c -0.088 0.558 -0.612 0.939 -1.169 0.852 c -8.46 -1.331 -17.042 -1.323 -25.506 0.022 C 12.306 56.608 12.252 56.612 12.199 56.612 z" style="stroke: none; stroke-width: 1; stroke-dasharray: none; stroke-linecap: butt; stroke-linejoin: miter; stroke-miterlimit: 10; fill: rgb(96,65,42); fill-rule: nonzero; opacity: 1;" transform=" matrix(1 0 0 1 0 0) " stroke-linecap="round" />
	<path d="M 12.198 67.372 c -0.494 0 -0.928 -0.359 -1.009 -0.862 c -0.088 -0.558 0.292 -1.082 0.849 -1.171 c 8.685 -1.382 17.491 -1.387 26.175 -0.019 c 0.558 0.089 0.939 0.612 0.851 1.17 c -0.087 0.558 -0.611 0.934 -1.17 0.852 c -8.471 -1.336 -17.064 -1.329 -25.535 0.017 C 12.306 67.368 12.252 67.372 12.198 67.372 z" style="stroke: none; stroke-width: 1; stroke-dasharray: none; stroke-linecap: butt; stroke-linejoin: miter; stroke-miterlimit: 10; fill: rgb(96,65,42); fill-rule: nonzero; opacity: 1;" transform=" matrix(1 0 0 1 0 0) " stroke-linecap="round" />
</g>
</svg>