<svg id="Layer_1" data-name="Layer 1" xmlns="http://www.w3.org/2000/svg" viewBox="0 0 512 512"><title>arrows-right-left-glyph</title><path d="M37.42,183.78H353.16L294.93,242a10.71,10.71,0,0,0,0,15.15l33.79,33.78a10.71,10.71,0,0,0,15.15,0L480.25,154.57a10.72,10.72,0,0,0,0-15.15L343.87,3a11,11,0,0,0-15.15,0L294.93,36.8a10.72,10.72,0,0,0,0,15.15l58.22,58.23H37.42A10.72,10.72,0,0,0,26.7,120.9v52.16A10.71,10.71,0,0,0,37.42,183.78Z"/><path d="M474.58,328.11H158.84l58.22-58.23a10.72,10.72,0,0,0,0-15.15l-33.78-33.79a10.71,10.71,0,0,0-15.15,0L31.75,357.33a10.72,10.72,0,0,0,0,15.15L168.13,508.86a10.71,10.71,0,0,0,15.15,0l33.79-33.78a10.71,10.71,0,0,0,0-15.15L158.84,401.7H474.58A10.72,10.72,0,0,0,485.3,391V338.82A10.72,10.72,0,0,0,474.58,328.11Z"/></svg>